<?xml version="1.0" encoding="UTF-8"?>
<svg id="_레이어_2" data-name="레이어 2" xmlns="http://www.w3.org/2000/svg" viewBox="0 0 265.98 235.73">
  <g id="_레이어_1-2" data-name="레이어 1">
    <g>
      <path d="M102.68,82.27c14.83-2.17,22.89,4.36,36.04,7.44,10.86,2.54,21.43,1.38,31.56,6.44,13.55,6.77,18.92,22.91,11.82,36.54-8.1,15.54-27.96,17.43-40.66,27.34-17.16,13.4-29.77,46.63-57.85,31.8-23.39-12.36-12.19-34.65-8.97-53.62,3.4-20.05-.78-51.73,28.06-55.94Z"/>
      <path d="M18.71,41.23c23.91-2.35,60.53,42.98,35.54,59.62-16.96,11.29-38.64-7.7-46.15-22.51C1.66,65.62.16,43.05,18.71,41.23Z"/>
      <path d="M68.67.22c20.74-3.35,41.82,33.35,40.15,51.17-.73,7.75-6.45,15.52-14.49,16.53-20.11,2.52-38.63-25.6-39.41-43.44-.39-8.93,3.52-22.62,13.75-24.27Z"/>
      <path d="M13.64,110.24c20.07-4.1,47.91,18.62,38.46,40.46-10.47,24.2-55.17,1.77-51.94-24.92.85-7.05,6.43-14.1,13.48-15.54Z"/>
      <path d="M127.25,14.35c9.73-9.78,23.83.5,29.48,9.34,8.25,12.89,16.84,44.36-5.41,47.23-24.44,3.16-38.62-41.95-24.08-56.57Z"/>
      <g>
        <path d="M161.64,184.24c23.86-4.94,50.12,36.49,27.99,48.98-16.11,9.09-38.3-8.24-40.62-24.8-1.36-9.68,1.74-21.93,12.64-24.18Z"/>
        <path d="M258.56,196.66c-6.57,6.7-27.56,18.17-34.07,7.28s11.21-26.71,20.42-30.43c21.03-8.49,27.71,8.82,13.65,23.15Z"/>
        <path d="M201.65,152.25c20.43-3.42,16.86,22.13-.35,29.64-24.79,10.82-21.09-26.06.35-29.64Z"/>
      </g>
    </g>
  </g>
</svg>