<?xml version="1.0" encoding="UTF-8"?>
<svg id="_레이어_2" data-name="레이어 2" xmlns="http://www.w3.org/2000/svg" viewBox="0 0 192.76 197.88">
  <g id="_레이어_1-2" data-name="레이어 1">
    <g>
      <path d="M69.57,84.44c27.79-2.28,44.08,12.24,44.28,40.29.04,5.22-2.07,12.7-2.11,17.94-.13,19.42,5.8,41.19-16.89,52.05-27.83,13.32-39.25-18.98-55.02-33.05-17-15.17-49.85-24.29-36.87-55.84,11.23-27.29,36.53-18.13,58.39-19.61,3.09-.21,5.71-1.57,8.22-1.78Z"/>
      <path d="M127.56,8.42c7.26-1.15,15.81,2.58,19.47,9.06,8.65,15.32-2.15,41.24-14.73,51.69-8.66,7.2-24.19,13.05-33.01,3.05-15.3-17.36,6.84-60.41,28.28-63.8Z"/>
      <path d="M168.56,60.43c27.62-4.36,29.71,23.43,15.77,40.77-10.38,12.92-39.1,27.41-51.34,10.32-13.88-19.39,17.41-48.22,35.57-51.09Z"/>
      <path d="M62.56.43c28.41-4.88,24.39,33,15.45,49.44-6.93,12.75-24.63,26.77-38.22,13.85C23.16,47.91,42.81,3.83,62.56.43Z"/>
    </g>
  </g>
</svg>