<?xml version="1.0" encoding="UTF-8"?>
<svg id="_레이어_2" data-name="레이어 2" xmlns="http://www.w3.org/2000/svg" viewBox="0 0 198.71 196.12">
  <g id="_레이어_1-2" data-name="레이어 1">
    <g>
      <path d="M110.83,85.25c17.13-2.91,29.74,7.45,44.28,13.25,15.94,6.35,39.01,8.24,41.9,30.1,4.78,36.27-28.92,33.36-51.13,44.7-13.74,7.02-25.57,20.91-41.39,22.6-14.63,1.56-30.07-5.2-35.17-19.61-6.5-18.33,3.65-28.25,9.95-43.6s11.68-44.06,31.56-47.44Z"/>
      <path d="M112.83.25c30.31-4.91,44.4,63.64,15.54,69.53C92.85,77.03,84.05,4.91,112.83.25Z"/>
      <path d="M44.83,20.23c14.07-2.39,30.69,14.4,36.78,25.76,9.99,18.64,10.13,44.18-17.95,39.95-13.69-2.06-29.73-24.37-31.48-37.52-1.31-9.85.6-26.15,12.65-28.19Z"/>
      <path d="M10.82,73.24c15.54-3.16,31.21,10.18,38.9,22.64,6.1,9.89,10.78,26.55-1.29,33.96C26.19,143.48-1.12,108.18.04,87.48c.35-6.22,4.4-12.94,10.78-14.24Z"/>
      <path d="M171.83,30.25c13.98-2.25,23.7,16.03,25.98,27.54s1.15,30.16-13.51,31.99c-26.56,3.32-36.38-55.68-12.48-59.53Z"/>
    </g>
  </g>
</svg>