<?xml version="1.0" encoding="UTF-8"?>
<svg id="_레이어_2" data-name="레이어 2" xmlns="http://www.w3.org/2000/svg" viewBox="0 0 219.25 278.02">
  <g id="_레이어_1-2" data-name="레이어 1">
    <g>
      <path d="M129.02,87.16c16.58-2.81,26.65,7,41.05,11.48,11.21,3.49,21.41,2.32,31.89,8.11,14.83,8.2,22.66,24.96,13.15,40.49-8.65,14.13-31.98,16.15-46.49,24.51-19.86,11.45-35.16,39.57-61.66,22-11.22-7.44-15.1-20.39-13.67-33.34.88-8.01,6.47-16.79,8.53-24.47,4.59-17.16,3.77-44.81,27.22-48.78Z"/>
      <path d="M35.01,81.15c13.18-2.35,30.16,11.26,36.69,21.85,8.32,13.49,12.26,37.37-9.92,37.35-19.42-.01-40.72-27.26-38.41-45.85.74-5.93,5.49-12.26,11.64-13.36Z"/>
      <g>
        <path d="M65.02,22.16c28.22-4.52,58.75,55.63,30,65.99-22.15,7.98-42.64-22.64-43.73-41.76-.52-9.1,3.37-22.57,13.73-24.23Z"/>
        <path d="M125.05.11c13.42-1.83,27.14,18.79,30.53,30,5.11,16.85,4.37,44.65-20.36,39.36-14.17-3.03-24.88-29.05-25.03-42.06-.11-9.75,3.18-25.7,14.85-27.3Z"/>
        <path d="M201.93,27.27c12.26,11.98,21.32,48.08,1.35,56.14-19.59,7.91-32.23-23.81-31.89-38.88.41-18.26,14.6-32.84,30.54-17.26Z"/>
      </g>
      <g>
        <path d="M104.99,225.13c7.73-1.78,11.59,3.78,10.06,11.06-3.87,18.38-48.55,42.38-66.27,41.81-5.09-.16-9.9-3.98-8.33-9.37,1.67-5.73,19.78-9.97,25.5-12.55,6.8-3.07,14.65-7.87,20.34-12.66,4.49-3.78,14.71-17.38,18.7-18.3Z"/>
        <path d="M2.52,227.17c2.25-2.06,14.53-2.68,18.76-3.75,17.12-4.33,24.08-14.36,37.06-22.94,7.86-5.2,15.79-1.47,11.77,7.78-6.3,14.49-42.94,33.46-58.39,33.68-8.62.13-15.69-8.85-9.2-14.78Z"/>
      </g>
    </g>
  </g>
</svg>