<?xml version="1.0" encoding="UTF-8"?>
<svg id="_레이어_2" data-name="레이어 2" xmlns="http://www.w3.org/2000/svg" viewBox="0 0 226.94 200.18">
  <g id="_레이어_1-2" data-name="레이어 1">
    <g>
      <path d="M35.86,131.31c10.61-11.63,46.38-35.61,62.03-35.46,27.71.26,33.39,18.54,41.53,39.55,7.82,20.17,20.6,46.75-5.63,60.34-29.32,15.2-39.97-13.35-65.87-15.85-12.91-1.25-23.24,2.29-34.5-7.5-13.48-11.72-8.19-29.44,2.43-41.08Z"/>
      <g>
        <path d="M157.21,10.14c14.64-1.8,21.66,11.25,22.27,24.2.83,17.7-10.62,44.3-27.78,51.3-8.04,3.28-16.37,3.84-23.16-2.36-19.33-17.66,4.65-70.2,28.67-73.15Z"/>
        <path d="M79.22.12c30.4-3.58,35.97,70.79,3.75,74.78C44.96,79.62,49.45,3.63,79.22.12Z"/>
        <path d="M18.17,38.13c17.25-2.88,28.7,22.43,30.16,36.36,3.83,36.66-35.33,38.42-46.37,5.37-4.71-14.12-1.56-38.76,16.21-41.73Z"/>
      </g>
      <path d="M205.22,109.17c8.03-.93,15.32.1,19.64,7.8,13.16,23.41-39.66,57.59-54.85,34.85-12.99-19.46,18.13-40.67,35.21-42.65Z"/>
    </g>
  </g>
</svg>